<?xml version="1.0" encoding="UTF-8" standalone="no"?><!-- Generator: Gravit.io --><svg xmlns="http://www.w3.org/2000/svg" xmlns:xlink="http://www.w3.org/1999/xlink" style="isolation:isolate" viewBox="0 0 500 500" width="500pt" height="500pt"><defs><clipPath id="_clipPath_vmQ2VdLDUsUM96LgqcfjKpLNlrSajdTu"><rect width="500" height="500"/></clipPath></defs><g clip-path="url(#_clipPath_vmQ2VdLDUsUM96LgqcfjKpLNlrSajdTu)"><path d="M 27.778 0 L 472.222 0 C 487.553 0 500 12.447 500 27.778 L 500 472.222 C 500 487.553 487.553 500 472.222 500 L 27.778 500 C 12.447 500 0 487.553 0 472.222 L 0 27.778 C 0 12.447 12.447 0 27.778 0 Z" style="stroke:none;fill:#381440;stroke-miterlimit:10;"/><path d=" M 313.704 135.885 C 322.655 126.617 335.91 122.9 348.375 126.163 C 360.84 129.425 370.575 139.16 373.837 151.625 C 377.1 164.09 373.383 177.345 364.115 186.296 L 349.979 200.432 L 299.568 150.021 L 313.704 135.885 Z  M 274.362 175.226 L 125 324.589 L 125 375 L 175.411 375 L 324.791 225.638 L 274.344 175.226 L 274.362 175.226 Z " fill="rgb(255,255,255)"/></g></svg>